<?xml version="1.0" standalone="no"?>
<!DOCTYPE svg PUBLIC "-//W3C//DTD SVG 20010904//EN"
 "http://www.w3.org/TR/2001/REC-SVG-20010904/DTD/svg10.dtd">
<svg version="1.0" xmlns="http://www.w3.org/2000/svg"
 width="366.000000pt" height="253.000000pt" viewBox="0 0 366.000000 253.000000"
 preserveAspectRatio="xMidYMid meet">

<g transform="translate(0.000000,253.000000) scale(0.100000,-0.100000)"
fill="#000000" stroke="none">
<path d="M1558 2334 c-26 -8 -66 -32 -92 -57 -38 -35 -368 -448 -362 -454 1
-1 121 28 268 65 l266 66 8 91 9 90 3 -78 c2 -53 7 -80 16 -83 11 -4 392 99
402 109 2 2 -63 55 -145 118 -193 148 -254 170 -373 133z"/>
<path d="M1370 160 c0 -35 2 -61 5 -58 8 7 9 108 1 115 -3 3 -6 -22 -6 -57z"/>
<path d="M1678 207 c-9 -10 -12 -29 -8 -63 l5 -49 3 42 c2 29 8 43 20 46 15 4
14 5 -2 6 -15 1 -16 4 -6 16 15 19 6 20 -12 2z"/>
<path d="M1863 160 c0 -36 2 -50 4 -32 2 17 2 47 0 65 -2 17 -4 3 -4 -33z"/>
<path d="M1923 160 c0 -36 2 -50 4 -32 2 17 2 47 0 65 -2 17 -4 3 -4 -33z"/>
<path d="M2588 207 c-9 -10 -12 -29 -8 -63 l5 -49 3 42 c2 29 8 43 20 46 15 4
14 5 -2 6 -15 1 -16 4 -6 16 15 19 6 20 -12 2z"/>
<path d="M2840 160 c0 -35 2 -61 5 -58 8 7 9 108 1 115 -3 3 -6 -22 -6 -57z"/>
<path d="M178 185 c-13 -28 2 -75 23 -75 8 0 6 7 -4 18 -10 10 -17 25 -17 32
0 7 7 22 17 32 10 11 12 18 4 18 -6 0 -17 -11 -23 -25z"/>
<path d="M1289 200 c-5 -64 8 -100 36 -100 6 1 2 5 -7 11 -11 6 -18 22 -18 39
0 22 5 30 18 31 13 0 14 2 2 6 -8 3 -18 11 -22 17 -5 7 -8 6 -9 -4z"/>
<path d="M2708 185 c-13 -28 2 -75 23 -75 8 0 6 7 -4 18 -10 10 -17 25 -17 32
0 7 7 22 17 32 10 11 12 18 4 18 -6 0 -17 -11 -23 -25z"/>
<path d="M3199 200 c-5 -64 8 -100 36 -100 6 1 2 5 -7 11 -11 6 -18 22 -18 39
0 22 5 30 18 31 13 0 14 2 2 6 -8 3 -18 11 -22 17 -5 7 -8 6 -9 -4z"/>
<path d="M320 145 c0 -27 2 -46 4 -44 8 8 10 78 3 85 -4 4 -7 -14 -7 -41z"/>
<path d="M406 174 c-9 -8 -16 -22 -16 -29 0 -17 27 -45 44 -45 15 0 46 32 46
47 0 13 -33 43 -48 43 -6 0 -18 -7 -26 -16z m58 -16 c8 -14 7 -21 -6 -34 -30
-30 -75 9 -48 42 16 18 39 15 54 -8z"/>
<path d="M566 174 c-4 -9 -4 -19 -1 -22 3 -3 5 1 5 9 1 8 7 3 16 -11 l15 -25
-7 25 c-9 35 -20 44 -28 24z"/>
<path d="M683 145 c0 -27 2 -38 4 -22 2 15 2 37 0 50 -2 12 -4 0 -4 -28z"/>
<path d="M740 145 c0 -27 2 -46 4 -44 8 8 10 78 3 85 -4 4 -7 -14 -7 -41z"/>
<path d="M787 175 c12 -9 23 -29 26 -48 4 -32 4 -32 5 5 2 28 -3 40 -17 48
-29 15 -38 12 -14 -5z"/>
<path d="M876 174 c-9 -8 -16 -22 -16 -29 0 -17 27 -45 43 -45 6 0 1 7 -11 16
-12 8 -22 21 -22 29 0 8 10 21 22 29 12 9 17 16 11 16 -6 0 -19 -7 -27 -16z"/>
<path d="M940 179 c0 -5 -5 -7 -11 -4 -6 4 -5 -2 2 -13 10 -16 10 -24 1 -35
-10 -12 -9 -16 3 -21 12 -4 15 3 15 39 0 25 -2 45 -5 45 -3 0 -5 -5 -5 -11z"/>
<path d="M1053 145 c0 -27 2 -38 4 -22 2 15 2 37 0 50 -2 12 -4 0 -4 -28z"/>
<path d="M1110 145 c0 -27 2 -46 4 -44 8 8 10 78 3 85 -4 4 -7 -14 -7 -41z"/>
<path d="M1157 175 c12 -9 23 -29 26 -48 4 -32 4 -32 5 5 2 28 -3 40 -17 48
-29 15 -38 12 -14 -5z"/>
<path d="M1417 175 c12 -9 23 -29 26 -48 4 -32 4 -32 5 5 2 28 -3 40 -17 48
-29 15 -38 12 -14 -5z"/>
<path d="M1506 174 c-9 -8 -16 -22 -16 -29 0 -30 51 -58 64 -36 4 5 -2 7 -12
4 -10 -2 -24 3 -31 11 -12 14 -9 16 23 16 35 0 50 20 26 35 -6 3 -7 -1 -4 -9
5 -13 -1 -16 -27 -16 l-34 1 24 19 c13 11 19 20 13 20 -6 0 -18 -7 -26 -16z"/>
<path d="M1732 153 c-1 -24 0 -43 2 -43 2 0 13 -3 23 -6 17 -6 17 -6 1 7 -9 8
-19 30 -21 49 -4 33 -4 33 -5 -7z"/>
<path d="M1800 162 c0 -15 -5 -33 -11 -39 -7 -7 -6 -12 5 -16 13 -5 16 2 16
38 0 25 -2 45 -5 45 -3 0 -5 -13 -5 -28z"/>
<path d="M1970 145 c0 -27 2 -46 4 -44 8 8 10 78 3 85 -4 4 -7 -14 -7 -41z"/>
<path d="M2017 175 c12 -9 23 -29 26 -48 4 -32 4 -32 5 5 2 28 -3 40 -17 48
-29 15 -38 12 -14 -5z"/>
<path d="M2106 174 c-9 -8 -16 -22 -16 -29 0 -30 51 -58 64 -36 4 5 -2 7 -12
4 -10 -2 -24 3 -31 11 -12 14 -9 16 23 16 35 0 50 20 26 35 -6 3 -7 -1 -4 -9
5 -13 -1 -16 -27 -16 l-34 1 24 19 c13 11 19 20 13 20 -6 0 -18 -7 -26 -16z"/>
<path d="M2221 181 c-7 -5 -12 -13 -10 -18 2 -5 12 -1 22 9 18 19 12 24 -12 9z"/>
<path d="M2313 183 c-7 -2 -13 -12 -13 -21 0 -13 2 -13 14 3 8 11 19 16 30 12
10 -4 15 -3 11 3 -7 11 -22 12 -42 3z"/>
<path d="M2466 174 c-9 -8 -16 -22 -16 -29 0 -17 27 -45 44 -45 15 0 46 32 46
47 0 13 -33 43 -48 43 -6 0 -18 -7 -26 -16z m58 -16 c8 -14 7 -21 -6 -34 -30
-30 -75 9 -48 42 16 18 39 15 54 -8z"/>
<path d="M2887 175 c12 -9 23 -29 26 -48 4 -32 4 -32 5 5 2 28 -3 40 -17 48
-29 15 -38 12 -14 -5z"/>
<path d="M2970 145 c0 -27 2 -46 4 -44 8 8 10 78 3 85 -4 4 -7 -14 -7 -41z"/>
<path d="M3053 145 c0 -27 2 -38 4 -22 2 15 2 37 0 50 -2 12 -4 0 -4 -28z"/>
<path d="M3101 181 c-7 -5 -12 -13 -10 -18 2 -5 12 -1 22 9 18 19 12 24 -12 9z"/>
<path d="M511 177 c-1 -4 6 -24 14 -45 13 -29 18 -34 25 -22 5 8 10 20 10 25
0 6 -4 4 -9 -4 -7 -11 -13 -7 -24 20 -9 19 -16 30 -16 26z"/>
<path d="M626 155 c-9 -26 -7 -32 5 -12 6 10 9 21 6 23 -2 3 -7 -2 -11 -11z"/>
<path d="M261 142 c0 -13 -10 -26 -23 -32 -13 -5 -16 -9 -8 -9 27 -1 42 15 37
40 -4 24 -4 24 -6 1z"/>
<path d="M2248 139 c14 -5 20 -13 16 -20 -4 -8 -3 -9 5 -5 16 10 -5 36 -28 35
-10 0 -8 -3 7 -10z"/>
<path d="M2338 139 c14 -5 20 -13 16 -20 -4 -8 -3 -9 5 -5 16 10 -5 36 -28 35
-10 0 -8 -3 7 -10z"/>
<path d="M3128 139 c14 -5 20 -13 16 -20 -4 -8 -3 -9 5 -5 16 10 -5 36 -28 35
-10 0 -8 -3 7 -10z"/>
<path d="M600 110 c0 -5 5 -10 10 -10 6 0 10 5 10 10 0 6 -4 10 -10 10 -5 0
-10 -4 -10 -10z"/>
<path d="M2765 110 c-13 -6 -15 -9 -5 -9 8 0 22 4 30 9 18 12 2 12 -25 0z"/>
<path d="M905 80 c-13 -6 -15 -9 -5 -9 8 0 22 4 30 9 18 12 2 12 -25 0z"/>
</g>
</svg>
